<svg xmlns="http://www.w3.org/2000/svg" xmlns:graphite="https://graphite.art" viewBox="0 0 1024 1024" width="1024" height="1024"><defs></defs><g>
<rect fill="#ffffff" fill-opacity="0" x="0" y="0" width="1024" height="1024"/>
<g>
	<g>
		<g>
			<path d="M440.861285843407,249.94418369052164 C440.861285843407,249.94418369052164 440.77928511098514,249.94418369052164 440.77928511098514,249.94418369052164 C440.77928511098514,249.94418369052164 440.6682926793445,249.94319186923258 440.6682926793445,249.94319186923258 C372.90831343129764,277.77319370028727 365.64830366567264,339.98019443270914 376.538287796532,373.44418369052164 C376.538287796532,373.44418369052164 376.53929487661014,373.69519077059977 376.5212895055164,374.15319858309977 C415.74830976918827,346.56518588778727 465.91029707387577,331.698181493256 513.2653080602039,331.698181493256 C628.2942997594226,331.698181493256 721.5433231969226,407.7851871084904 721.5433231969226,501.64318881747477 C721.5433231969226,595.5011905264591 628.2942997594226,671.5881656241154 513.2653080602039,671.5881656241154 C512.3773075719226,671.5881656241154 511.392291702782,671.5511783194279 510.350299515282,671.5121768545841 C510.350299515282,671.5121768545841 510.34730879262577,671.5121768545841 510.34730879262577,671.5121768545841 C504.881305374657,671.3091739248966 497.839313187157,671.0472110342716 494.985309280907,675.6951602530216 C491.58729902700077,681.2292178702091 499.08031050161014,689.7411807608341 503.3953129430164,694.6231998038029 C548.3632694859851,745.4911807608341 613.5883061070789,751.8841861319279 630.7183109898914,753.5632022452091 C631.8193241734851,753.6711734366154 632.7213017125476,753.7591861319279 633.4072758336414,753.8392032217716 C482.30528608754764,768.4521792959904 305.0432926793445,671.9211734366154 304.98729292348514,504.1231998038029 C304.9742924352039,464.57019077059977 319.5852848668445,430.95419345614664 342.912311234032,404.198181493256 C342.8173100133289,404.18518100497477 342.72328535512577,404.1711734366154 342.62730757192264,404.15820346591227 C347.7613102574695,318.2971805166935 314.79429975942264,215.61918674227945 253.12729231313358,195.4291843008732 C248.76329390004764,194.00119052645914 244.44029585317264,197.28218112704508 243.89630476430546,201.84118686434977 C235.78529707387577,269.75720248934977 218.22529951528202,293.29818759677164 199.28230635121952,318.6931766104435 C170.86330000356327,356.79318271395914 150.21030012563358,400.8271792959904 151.11029402211796,449.18518100497477 C140.79629866078983,427.5981753897404 132.43429914907108,405.062195165131 126.2282978673328,381.760193212006 C125.38629499868046,378.60119662997477 120.19230238393436,368.90417514559977 114.4782978673328,372.156189305756 C109.91229597524296,374.7551883291935 106.47330061391483,381.8591922354435 104.01530043080936,389.26818881747477 C94.6177021642078,424.5361941885685 89.76829878286014,462.1651919913029 89.76829878286014,498.5981753897404 C89.76829878286014,729.2801822256779 282.98131147817264,922.0971988272404 513.2692753453601,922.0971988272404 C747.1613041539539,922.0971988272404 936.7682987828601,732.4902041983341 936.7682987828601,498.5981753897404 C936.7682987828601,409.4221805166935 909.2053105016101,326.68319736239664 862.1343266148914,258.437195165131 C864.0953251500476,258.4001773428654 866.0623051305164,258.38220248934977 868.0333134312976,258.38220248934977 C886.3123051305164,258.38220248934977 904.1423222203601,259.94519077059977 921.3312870641101,262.916199071381 C895.4202763219226,234.12619052645914 860.4653202672351,210.85418735263102 819.7772709508289,195.7381900381779 C846.9402958531726,185.8871921133732 876.6172978062976,179.78419528720133 907.8102909703601,178.23718295809977 C857.4573246617664,137.1131900381779 783.9863163609851,111.19918857333414 702.1663090367664,111.19918857333414 C583.7413212437976,111.19918857333414 467.53029219106327,156.71418796298258 440.861285843407,249.94418369052164 C440.861285843407,249.94418369052164 440.861285843407,249.94418369052164 440.861285843407,249.94418369052164 ZM562.8262821812976,217.60719333407633 C562.8262821812976,217.60719333407633 564.7762943883289,239.67318759677164 542.4872929234851,246.69218478915445 C517.0093266148914,254.7151950430607 505.71730390981327,233.28419528720133 505.71730390981327,233.28419528720133 C505.71730390981327,233.28419528720133 508.92030683950077,218.56718478915445 529.5912968297351,211.7591861319279 C551.6733280797351,204.4881900381779 562.8262821812976,217.60719333407633 562.8262821812976,217.60719333407633 C562.8262821812976,217.60719333407633 562.8262821812976,217.60719333407633 562.8262821812976,217.60719333407633 Z" fill="#ffffff"/>
		</g>
		<g>
			<path d="M464.923297562157,573.4371646475529 C434.24928633168827,541.5121768545841 342.37929121450077,435.46517978427164 342.37929121450077,435.46517978427164 C342.37929121450077,435.46517978427164 349.4902836461414,435.771179540131 349.4902836461414,435.771179540131 C349.4902836461414,435.771179540131 493.30430952504764,543.1882022452091 493.30430952504764,543.1882022452091 C504.079303421532,551.0141910147404 519.4363285680164,550.9361880850529 530.1132694859851,543.0002139639591 C530.1132694859851,543.0002139639591 671.1353031773914,435.90918002841227 671.1353031773914,435.90918002841227 C671.1353031773914,435.90918002841227 678.6223026891101,435.3271792959904 678.6223026891101,435.3271792959904 C678.6223026891101,435.3271792959904 589.7562748570789,538.8631900381779 555.7203251500476,572.9731753897404 C521.6832768102039,607.0841983389591 495.59630171254764,605.3631900381779 464.923297562157,573.4371646475529 C464.923297562157,573.4371646475529 464.923297562157,573.4371646475529 464.923297562157,573.4371646475529 Z" fill="#ffffff"/>
		</g>
	</g>
	<g>
		<path d="M795.6225198688369,640.8180959261931 C873.5046121213568,640.8180959261931 936.7682987828596,703.8548837326493 936.7682987828596,781.4576473767167 C936.7682987828596,859.0604110207842 873.5046121213568,922.0971988272404 795.6225198688369,922.0971988272404 C717.740427616317,922.0971988272404 654.4767409548142,859.0604110207842 654.4767409548142,781.4576473767167 C654.4767409548142,703.8548837326493 717.740427616317,640.8180959261931 795.6225198688369,640.8180959261931 Z" transform="matrix(1,0,0,1,0,0)" fill="#ee5396"/>
	</g>
</g></g></svg>